<svg width="461" height="603" viewBox="0 0 461 603" fill="none" xmlns="http://www.w3.org/2000/svg">
<path d="M373.752 210.803C373.342 210.752 372.94 210.671 372.549 210.563L360.658 233.657L357.99 232.284L369.844 209.266C369.478 209.002 369.134 208.711 368.814 208.393L346.808 223.371L345.119 220.891L367.095 205.934C366.777 205.248 366.548 204.512 366.423 203.738L339.358 204.814L339.238 201.817L366.47 200.732C366.564 200.252 366.698 199.785 366.87 199.336L342.319 187.104L343.656 184.418L368.426 196.76C368.727 196.418 369.054 196.1 369.406 195.809L353.402 172.65L355.87 170.945L372.034 194.336C372.308 194.242 372.587 194.161 372.872 194.094L371.393 165.999L374.389 165.841L375.868 193.937C376.444 194.008 377.002 194.138 377.537 194.319L390.947 168.269L393.615 169.643L380.167 195.77C380.445 195.996 380.707 196.24 380.954 196.499L404.639 180.376L406.327 182.857L382.616 198.999C382.766 199.346 382.892 199.706 382.995 200.076L411.181 198.952L411.301 201.949L383.281 203.066C383.253 203.413 383.205 203.755 383.136 204.09L408.101 216.527L406.763 219.212L382.013 206.881C381.81 207.205 381.586 207.513 381.343 207.806L396.803 230.178L394.335 231.883L379.036 209.744C378.332 210.148 377.564 210.455 376.748 210.645L378.175 237.741L375.18 237.899L373.752 210.803Z" fill="#83A17D"/>
<path d="M0.494691 71.0382C5.6823 104.465 34.6862 163.012 109.201 129.789C202.344 88.2599 206.461 93.5152 251.818 227.853C297.175 362.19 366.142 381.095 399.724 342.088C428.277 308.923 413.285 214.159 324.85 243.59C236.415 273.021 245.873 482.497 413.596 540.54" stroke="url(#paint0_linear_231_50)"/>
<defs>
<linearGradient id="paint0_linear_231_50" x1="537.41" y1="621.093" x2="63.0614" y2="117.248" gradientUnits="userSpaceOnUse">
<stop offset="0.203415" stop-color="#143C3C"/>
<stop offset="0.553176" stop-color="white"/>
<stop offset="1" stop-opacity="0"/>
</linearGradient>
</defs>
</svg>
